<svg width="526" height="93" viewBox="0 0 526 93" fill="none" xmlns="http://www.w3.org/2000/svg">
<path d="M36.2584 59.3377C31.1288 56.2223 31.1288 48.7777 36.2584 45.6623L70.5972 24.8069C75.9285 21.5689 82.75 25.407 82.75 31.6446V73.3554C82.75 79.593 75.9285 83.4311 70.5972 80.1931L36.2584 59.3377Z" stroke="black" stroke-width="10"/>
<path d="M65.7416 33.6623C70.8712 36.7777 70.8712 44.2223 65.7416 47.3377L31.4028 68.1931C26.0715 71.4311 19.25 67.593 19.25 61.3554L19.25 19.6446C19.25 13.407 26.0715 9.56894 31.4028 12.8069L65.7416 33.6623Z" stroke="black" stroke-width="10"/>
<path d="M115.688 64H106.125V17.9375H115.688V64ZM142.844 29.125C146.365 29.125 149.24 30.0521 151.469 31.9062C153.719 33.7396 154.844 36.7917 154.844 41.0625V64H145.719V43.2812C145.719 41.4896 145.479 40.1146 145 39.1562C144.125 37.4062 142.458 36.5312 140 36.5312C136.979 36.5312 134.906 37.8125 133.781 40.375C133.198 41.7292 132.906 43.4583 132.906 45.5625V64H124.031V30H132.625V34.9688C133.771 33.2188 134.854 31.9583 135.875 31.1875C137.708 29.8125 140.031 29.125 142.844 29.125ZM184.781 17.6562H193.5V25.7812H184.781V17.6562ZM184.781 30.0938H193.656V64H184.781V30.0938ZM175.875 17.4688C176.417 17.4688 176.969 17.4896 177.531 17.5312C178.094 17.5729 178.677 17.6146 179.281 17.6562V24.9062C178.865 24.8854 178.458 24.875 178.062 24.875C177.667 24.8542 177.188 24.8438 176.625 24.8438C175.229 24.8438 174.375 25.2292 174.062 26C173.75 26.7708 173.615 27.9792 173.656 29.625V30.25H179.5V36.5312H173.656V64H164.781V36.5312H159.812V30.25H164.688V28.0625C164.688 24.4375 165.49 21.7396 167.094 19.9688C168.531 18.3021 171.458 17.4688 175.875 17.4688ZM221.094 29.125C224.615 29.125 227.49 30.0521 229.719 31.9062C231.969 33.7396 233.094 36.7917 233.094 41.0625V64H223.969V43.2812C223.969 41.4896 223.729 40.1146 223.25 39.1562C222.375 37.4062 220.708 36.5312 218.25 36.5312C215.229 36.5312 213.156 37.8125 212.031 40.375C211.448 41.7292 211.156 43.4583 211.156 45.5625V64H202.281V30H210.875V34.9688C212.021 33.2188 213.104 31.9583 214.125 31.1875C215.958 29.8125 218.281 29.125 221.094 29.125ZM250.5 25.875H241.469V17.6562H250.5V25.875ZM241.469 29.9375H250.5V64H241.469V29.9375ZM255.656 36.5938V30.25H260.406V20.75H269.219V30.25H274.75V36.5938H269.219V54.5938C269.219 55.9896 269.396 56.8646 269.75 57.2188C270.104 57.5521 271.188 57.7188 273 57.7188C273.271 57.7188 273.552 57.7188 273.844 57.7188C274.156 57.6979 274.458 57.6771 274.75 57.6562V64.3125L270.531 64.4688C266.323 64.6146 263.448 63.8854 261.906 62.2812C260.906 61.2604 260.406 59.6875 260.406 57.5625V36.5938H255.656ZM281.844 70.5312L282.969 70.5938C283.844 70.6354 284.677 70.6042 285.469 70.5C286.26 70.3958 286.927 70.1562 287.469 69.7812C287.99 69.4271 288.469 68.6875 288.906 67.5625C289.365 66.4375 289.552 65.75 289.469 65.5L276.969 29.9375H286.875L294.312 55.0625L301.344 29.9375H310.812L299.125 63.4375C296.875 69.8958 295.094 73.8958 293.781 75.4375C292.469 77 289.844 77.7812 285.906 77.7812C285.115 77.7812 284.479 77.7708 284 77.75C283.521 77.75 282.802 77.7188 281.844 77.6562V70.5312ZM316.75 64V17.9375H326.281V35.5H344.281V17.9375H353.844V64H344.281V43.4375H326.281V64H316.75ZM377.625 57.7188C380.229 57.7188 382.229 56.7917 383.625 54.9375C385.021 53.0833 385.719 50.4479 385.719 47.0312C385.719 43.6146 385.021 40.9896 383.625 39.1562C382.229 37.3021 380.229 36.375 377.625 36.375C375.021 36.375 373.01 37.3021 371.594 39.1562C370.198 40.9896 369.5 43.6146 369.5 47.0312C369.5 50.4479 370.198 53.0833 371.594 54.9375C373.01 56.7917 375.021 57.7188 377.625 57.7188ZM395.062 47.0312C395.062 52.0312 393.625 56.3125 390.75 59.875C387.875 63.4167 383.51 65.1875 377.656 65.1875C371.802 65.1875 367.438 63.4167 364.562 59.875C361.688 56.3125 360.25 52.0312 360.25 47.0312C360.25 42.1146 361.688 37.8542 364.562 34.25C367.438 30.6458 371.802 28.8438 377.656 28.8438C383.51 28.8438 387.875 30.6458 390.75 34.25C393.625 37.8542 395.062 42.1146 395.062 47.0312ZM439.531 29.1875C441.031 29.1875 442.51 29.4792 443.969 30.0625C445.427 30.6458 446.75 31.6667 447.938 33.125C448.896 34.3125 449.542 35.7708 449.875 37.5C450.083 38.6458 450.188 40.3229 450.188 42.5312L450.125 64H441V42.3125C441 41.0208 440.792 39.9583 440.375 39.125C439.583 37.5417 438.125 36.75 436 36.75C433.542 36.75 431.844 37.7708 430.906 39.8125C430.427 40.8958 430.188 42.1979 430.188 43.7188V64H421.219V43.7188C421.219 41.6979 421.01 40.2292 420.594 39.3125C419.844 37.6667 418.375 36.8438 416.188 36.8438C413.646 36.8438 411.938 37.6667 411.062 39.3125C410.583 40.25 410.344 41.6458 410.344 43.5V64H401.312V30H409.969V34.9688C411.073 33.1979 412.115 31.9375 413.094 31.1875C414.823 29.8542 417.062 29.1875 419.812 29.1875C422.417 29.1875 424.521 29.7604 426.125 30.9062C427.417 31.9688 428.396 33.3333 429.062 35C430.229 33 431.677 31.5312 433.406 30.5938C435.24 29.6562 437.281 29.1875 439.531 29.1875ZM471.844 36.375C469.781 36.375 468.177 37.0208 467.031 38.3125C465.906 39.6042 465.198 41.3542 464.906 43.5625H478.75C478.604 41.2083 477.885 39.4271 476.594 38.2188C475.323 36.9896 473.74 36.375 471.844 36.375ZM471.844 29.0312C474.677 29.0312 477.229 29.5625 479.5 30.625C481.771 31.6875 483.646 33.3646 485.125 35.6562C486.458 37.6771 487.323 40.0208 487.719 42.6875C487.948 44.25 488.042 46.5 488 49.4375H464.688C464.812 52.8542 465.885 55.25 467.906 56.625C469.135 57.4792 470.615 57.9062 472.344 57.9062C474.177 57.9062 475.667 57.3854 476.812 56.3438C477.438 55.7812 477.99 55 478.469 54H487.562C487.333 56.0208 486.281 58.0729 484.406 60.1562C481.49 63.4688 477.406 65.125 472.156 65.125C467.823 65.125 464 63.7292 460.688 60.9375C457.375 58.1458 455.719 53.6042 455.719 47.3125C455.719 41.4167 457.208 36.8958 460.188 33.75C463.188 30.6042 467.073 29.0312 471.844 29.0312ZM500.969 53.125C501.156 54.7083 501.562 55.8333 502.188 56.5C503.292 57.6875 505.333 58.2812 508.312 58.2812C510.062 58.2812 511.448 58.0208 512.469 57.5C513.51 56.9792 514.031 56.1979 514.031 55.1562C514.031 54.1562 513.615 53.3958 512.781 52.875C511.948 52.3542 508.854 51.4583 503.5 50.1875C499.646 49.2292 496.927 48.0312 495.344 46.5938C493.76 45.1771 492.969 43.1354 492.969 40.4688C492.969 37.3229 494.198 34.625 496.656 32.375C499.135 30.1042 502.615 28.9688 507.094 28.9688C511.344 28.9688 514.802 29.8229 517.469 31.5312C520.156 33.2188 521.698 36.1458 522.094 40.3125H513.188C513.062 39.1667 512.74 38.2604 512.219 37.5938C511.24 36.3854 509.573 35.7812 507.219 35.7812C505.281 35.7812 503.896 36.0833 503.062 36.6875C502.25 37.2917 501.844 38 501.844 38.8125C501.844 39.8333 502.281 40.5729 503.156 41.0312C504.031 41.5104 507.125 42.3333 512.438 43.5C515.979 44.3333 518.635 45.5938 520.406 47.2812C522.156 48.9896 523.031 51.125 523.031 53.6875C523.031 57.0625 521.771 59.8229 519.25 61.9688C516.75 64.0938 512.875 65.1562 507.625 65.1562C502.271 65.1562 498.312 64.0312 495.75 61.7812C493.208 59.5104 491.938 56.625 491.938 53.125H500.969Z" fill="black"/>
</svg>
