<svg width="90" height="120" viewBox="0 0 90 120" fill="none" xmlns="http://www.w3.org/2000/svg">
<g clip-path="url(#clip0_528_135)">
<path d="M8.38042 69.8246C-4.37714 51.1135 -1.02939 25.7588 16.0843 10.927C33.1084 -3.82732 58.5426 -3.55763 75.1855 11.6254C91.2346 26.2667 94.342 50.3667 82.5318 68.6001L51.7257 116.16C49.0056 120.36 42.8856 120.432 40.0669 116.298L8.38042 69.8246Z" fill="black"/>
<circle cx="45" cy="44" r="34" fill="#FF7700"/>
<path d="M17.625 41.8235C17.625 42.9485 18.515 43.6285 19.617 43.6285C20.297 43.6285 20.836 43.3005 21.305 42.8315L44.18 21.9955C44.437 21.7375 44.719 21.6435 45.023 21.6435C45.305 21.6435 45.563 21.7375 45.843 21.9955L68.695 42.8315C69.187 43.3005 69.726 43.6285 70.383 43.6285C71.484 43.6285 72.375 42.9485 72.375 41.8235C72.375 41.1205 72.117 40.6755 71.672 40.2765L63.562 32.8945V19.0425C63.562 18.0115 62.906 17.3555 61.875 17.3555H58.805C57.797 17.3555 57.094 18.0115 57.094 19.0425V27.0115L47.812 18.5265C46.992 17.7535 45.984 17.3795 45 17.3795C44.015 17.3795 43.031 17.7545 42.187 18.5275L18.328 40.2765C17.906 40.6755 17.625 41.1205 17.625 41.8235ZM24.328 61.4875C24.328 64.7455 26.297 66.6445 29.601 66.6445H39.094V49.9795C39.094 48.9015 39.82 48.1995 40.898 48.1995H49.172C50.25 48.1995 50.953 48.9015 50.953 49.9795V66.6445H60.422C63.726 66.6445 65.672 64.7455 65.672 61.4875V44.3315L45.773 26.4015C45.515 26.1675 45.234 26.0505 44.953 26.0505C44.695 26.0505 44.437 26.1675 44.156 26.4255L24.328 44.4485V61.4875Z" fill="white"/>
</g>
<defs>
<clipPath id="clip0_528_135">
<rect width="90" height="120" fill="white"/>
</clipPath>
</defs>
</svg>
